<svg width="1819" height="100" viewBox="0 0 1819 100" fill="none" xmlns="http://www.w3.org/2000/svg">
<g clip-path="url(#clip0_747_159)">
<rect width="1819" height="100" fill="#D33564"/>
<mask id="path-1-inside-1_747_159" fill="white">
<path d="M1904.6 -70.2171C1882.66 -77.6404 1859.23 -81.5155 1836.55 -86.1875C1812.19 -91.2327 1787.76 -95.836 1763.12 -99.2752C1715.48 -105.905 1666.65 -108.109 1619.12 -99.5503C1598.36 -95.8131 1577.59 -89.7166 1559.74 -78.1864C1540.44 -65.7099 1527.04 -46.9597 1518.98 -25.602C1510.11 -2.0282 1507.66 23.1383 1506.21 48.0557C1505.44 61.3454 1504.87 74.6102 1503.66 87.9062C1502.56 100.113 1500.62 112.295 1499.2 124.476C1496.58 147.147 1496.7 169.58 1506.28 190.706C1515.54 211.277 1530.77 228.685 1545.61 245.453C1576.25 280.201 1613.59 314.04 1661.72 319.12C1705.28 323.727 1739.73 298.333 1766.97 267.094C1772.77 260.458 1778.25 253.635 1783.75 246.731C1819.8 214.216 1855.8 181.289 1886.82 143.788C1916.14 108.354 1944.08 66.384 1954.54 20.9554C1958.74 2.67933 1959.55 -17.526 1950.94 -34.7921C1941.72 -53.2034 1923.52 -63.8391 1904.6 -70.2171ZM1929.98 -53.5755C1947.4 -40.7611 1954.8 -20.8618 1953.75 0.302104C1952.77 20.7377 1945.49 40.3649 1937.08 58.8468C1927.26 80.4351 1914.81 100.723 1900.81 119.915C1872.69 158.331 1838.48 191.761 1803.56 223.835C1797.87 229.095 1792.15 234.231 1786.42 239.448C1785.74 239.193 1784.96 239.336 1784.38 240.065C1783.29 241.447 1782.17 242.866 1781.04 244.285C1779.99 245.263 1778.9 246.196 1777.9 247.137C1777.29 247.659 1777.15 248.382 1777.35 248.967C1754.53 277.615 1727.86 307.148 1690.64 314.423C1643.43 323.535 1599.46 295.536 1567.51 263.576C1551.66 247.749 1536.32 230.658 1523.31 212.403C1509.52 193.071 1501.15 172.039 1501.27 148.036C1501.38 125.254 1506.35 102.764 1508.03 80.1435C1509.82 55.6991 1509.99 31.0496 1514.19 6.87255C1518.14 -16.1031 1526.13 -39.297 1541.42 -57.2507C1556.17 -74.5944 1577.06 -84.9547 1598.69 -91.0263C1642.07 -103.282 1689.02 -103.175 1733.55 -98.9417C1779.04 -94.6336 1823.82 -85.2523 1868.38 -75.6032C1889.48 -71.0929 1912.22 -66.6202 1929.98 -53.5755ZM1770.74 -65.2772C1727.08 -66.9214 1683.29 -66.4182 1639.66 -63.7052C1622.08 -62.6137 1603.67 -60.8126 1588.34 -51.3679C1574.34 -42.7576 1564.78 -28.9626 1558.67 -13.9667C1545.4 18.5898 1544.58 57.1079 1548.47 91.5919C1552.47 127.713 1563.48 163.192 1580.95 195.097C1598.77 227.681 1624.98 260.258 1663.7 266.895C1699.86 273.009 1730.23 249.458 1753.29 224.451C1767.75 208.794 1780.97 191.861 1797.47 178.234C1812.33 165.944 1829.16 156.493 1845.34 146.096C1861.22 135.88 1876.41 124.512 1888.2 109.627C1893.88 102.412 1898.74 94.6867 1903.06 86.5942C1909.04 75.414 1914.67 64.0845 1919.47 52.3256C1927.28 33.2274 1934.86 11.6706 1925.43 -8.22222C1924.84 -9.52932 1924.12 -10.8053 1923.48 -12.075C1918.37 -21.3802 1911.32 -29.6955 1903.03 -36.3549C1900.51 -38.4211 1897.84 -40.2944 1895.04 -42.0557C1858.99 -64.5223 1811.76 -63.7135 1770.74 -65.2772ZM1926.23 10.0719C1926.3 11.8272 1926.33 13.6199 1926.27 15.4873C1925.72 27.5321 1920.86 38.9611 1916.39 49.973C1913.99 55.893 1911.43 61.7195 1908.67 67.4901C1907.99 68.9032 1900.54 84.447 1900.07 84.2479C1899.99 84.2416 1899.95 84.1981 1899.83 84.1483C1891.52 99.7482 1881.07 114.085 1867.02 125.907C1839.46 148.942 1805.88 162.926 1780.51 188.855C1755.84 214.024 1735.04 246.084 1700.82 259.327C1662.46 274.165 1625.07 251.637 1602.06 221.382C1560 166.18 1543.37 90.6713 1553.08 22.5166C1555.52 5.44832 1560.06 -11.9065 1569.21 -26.7098C1579.04 -42.5589 1593.8 -52.5762 1611.94 -56.6368C1629.82 -60.6352 1648.71 -60.6499 1666.92 -61.4489C1687.66 -62.298 1708.4 -62.6989 1729.18 -62.5271C1749.24 -62.4112 1769.25 -61.8099 1789.28 -60.7604C1809.63 -59.686 1830.27 -58.7112 1850.27 -54.7734C1868.31 -51.1902 1886.26 -44.2768 1900.81 -32.8626C1907.96 -27.2675 1914.24 -20.5581 1918.94 -12.7903C1923.42 -5.36487 1925.8 1.899 1926.23 10.0719ZM1875.03 -19.215C1869.09 -21.3805 1862.8 -22.718 1856.82 -23.7879C1828.79 -28.7082 1800.11 -25.0509 1772.22 -21.1696C1757.66 -19.1137 1743.08 -16.896 1728.41 -15.5808C1712.43 -14.1223 1696.66 -14.3569 1680.66 -15.3011C1653.83 -16.8727 1622.09 -17.3979 1602.48 4.41557C1582.12 27.0259 1583.26 63.8632 1586.31 92.1787C1589.34 120.737 1597.05 152.015 1613.54 175.99C1621.08 186.988 1631.4 196.367 1644.21 200.648C1656.52 204.768 1669.77 203.913 1682.05 200.258C1710.95 191.652 1731.23 169.035 1753.21 149.805C1767.21 137.491 1782.54 128.046 1799.24 119.846C1814.54 112.313 1830.22 105.215 1844.01 95.1229C1862.63 81.4949 1877.43 63.5848 1890.47 44.6852C1896.19 36.3746 1901.48 27.2175 1901.78 16.9033C1902.06 8.49998 1899.24 0.103297 1893.96 -6.48795C1889.1 -12.6 1882.35 -16.4958 1875.03 -19.215ZM1892.53 34.7504C1892.23 35.3792 1891.91 35.9643 1891.61 36.5931C1890.41 38.9835 1888.55 41.0378 1886.99 43.2789C1883.7 47.9913 1880.34 52.6166 1876.82 57.1486C1869.83 66.0942 1862.31 74.5918 1853.91 82.2491C1831.91 102.252 1804.22 111.642 1778.92 126.385C1754.13 140.841 1735.92 163.047 1713.17 180.061C1691.68 196.155 1660.54 208.048 1635.43 192.526C1611.1 177.472 1600.73 145.379 1594.6 119.025C1588.06 91.0518 1584.86 58.4102 1592.89 30.417C1597.16 15.4836 1606.02 2.81542 1620.12 -4.28238C1633.11 -10.8136 1647.8 -12.4525 1662.15 -12.2861C1677.37 -12.1759 1692.48 -10.3228 1707.73 -10.6172C1720.52 -10.8553 1733.28 -12.1142 1746.02 -13.7404C1775.97 -17.5037 1806.02 -23.62 1836.32 -22.2293C1843.54 -21.919 1850.68 -21.1666 1857.79 -19.9288C1869.27 -17.9072 1880.87 -15.1449 1889.23 -6.36291C1895.04 -0.300814 1898.23 8.0025 1898.08 16.3747C1897.95 22.9168 1895.33 28.9425 1892.53 34.7504Z"/>
</mask>
<path d="M1904.6 -70.2171C1882.66 -77.6404 1859.23 -81.5155 1836.55 -86.1875C1812.19 -91.2327 1787.76 -95.836 1763.12 -99.2752C1715.48 -105.905 1666.65 -108.109 1619.12 -99.5503C1598.36 -95.8131 1577.59 -89.7166 1559.74 -78.1864C1540.44 -65.7099 1527.04 -46.9597 1518.98 -25.602C1510.11 -2.0282 1507.66 23.1383 1506.21 48.0557C1505.44 61.3454 1504.87 74.6102 1503.66 87.9062C1502.56 100.113 1500.62 112.295 1499.2 124.476C1496.58 147.147 1496.7 169.58 1506.28 190.706C1515.54 211.277 1530.77 228.685 1545.61 245.453C1576.25 280.201 1613.59 314.04 1661.72 319.12C1705.28 323.727 1739.73 298.333 1766.97 267.094C1772.77 260.458 1778.25 253.635 1783.75 246.731C1819.8 214.216 1855.8 181.289 1886.82 143.788C1916.14 108.354 1944.08 66.384 1954.54 20.9554C1958.74 2.67933 1959.55 -17.526 1950.94 -34.7921C1941.72 -53.2034 1923.52 -63.8391 1904.6 -70.2171ZM1929.98 -53.5755C1947.4 -40.7611 1954.8 -20.8618 1953.75 0.302104C1952.77 20.7377 1945.49 40.3649 1937.08 58.8468C1927.26 80.4351 1914.81 100.723 1900.81 119.915C1872.69 158.331 1838.48 191.761 1803.56 223.835C1797.87 229.095 1792.15 234.231 1786.42 239.448C1785.74 239.193 1784.96 239.336 1784.38 240.065C1783.29 241.447 1782.17 242.866 1781.04 244.285C1779.99 245.263 1778.9 246.196 1777.9 247.137C1777.29 247.659 1777.15 248.382 1777.35 248.967C1754.53 277.615 1727.86 307.148 1690.64 314.423C1643.43 323.535 1599.46 295.536 1567.51 263.576C1551.66 247.749 1536.32 230.658 1523.31 212.403C1509.52 193.071 1501.15 172.039 1501.27 148.036C1501.38 125.254 1506.35 102.764 1508.03 80.1435C1509.82 55.6991 1509.99 31.0496 1514.19 6.87255C1518.14 -16.1031 1526.13 -39.297 1541.42 -57.2507C1556.17 -74.5944 1577.06 -84.9547 1598.69 -91.0263C1642.07 -103.282 1689.02 -103.175 1733.55 -98.9417C1779.04 -94.6336 1823.82 -85.2523 1868.38 -75.6032C1889.48 -71.0929 1912.22 -66.6202 1929.98 -53.5755ZM1770.74 -65.2772C1727.08 -66.9214 1683.29 -66.4182 1639.66 -63.7052C1622.08 -62.6137 1603.67 -60.8126 1588.34 -51.3679C1574.34 -42.7576 1564.78 -28.9626 1558.67 -13.9667C1545.4 18.5898 1544.58 57.1079 1548.47 91.5919C1552.47 127.713 1563.48 163.192 1580.95 195.097C1598.77 227.681 1624.98 260.258 1663.7 266.895C1699.86 273.009 1730.23 249.458 1753.29 224.451C1767.75 208.794 1780.97 191.861 1797.47 178.234C1812.33 165.944 1829.16 156.493 1845.34 146.096C1861.22 135.88 1876.41 124.512 1888.2 109.627C1893.88 102.412 1898.74 94.6867 1903.06 86.5942C1909.04 75.414 1914.67 64.0845 1919.47 52.3256C1927.28 33.2274 1934.86 11.6706 1925.43 -8.22222C1924.84 -9.52932 1924.12 -10.8053 1923.48 -12.075C1918.37 -21.3802 1911.32 -29.6955 1903.03 -36.3549C1900.51 -38.4211 1897.84 -40.2944 1895.04 -42.0557C1858.99 -64.5223 1811.76 -63.7135 1770.74 -65.2772ZM1926.23 10.0719C1926.3 11.8272 1926.33 13.6199 1926.27 15.4873C1925.72 27.5321 1920.86 38.9611 1916.39 49.973C1913.99 55.893 1911.43 61.7195 1908.67 67.4901C1907.99 68.9032 1900.54 84.447 1900.07 84.2479C1899.99 84.2416 1899.95 84.1981 1899.83 84.1483C1891.52 99.7482 1881.07 114.085 1867.02 125.907C1839.46 148.942 1805.88 162.926 1780.51 188.855C1755.84 214.024 1735.04 246.084 1700.82 259.327C1662.46 274.165 1625.07 251.637 1602.06 221.382C1560 166.18 1543.37 90.6713 1553.08 22.5166C1555.52 5.44832 1560.06 -11.9065 1569.21 -26.7098C1579.04 -42.5589 1593.8 -52.5762 1611.94 -56.6368C1629.82 -60.6352 1648.71 -60.6499 1666.92 -61.4489C1687.66 -62.298 1708.4 -62.6989 1729.18 -62.5271C1749.24 -62.4112 1769.25 -61.8099 1789.28 -60.7604C1809.63 -59.686 1830.27 -58.7112 1850.27 -54.7734C1868.31 -51.1902 1886.26 -44.2768 1900.81 -32.8626C1907.96 -27.2675 1914.24 -20.5581 1918.94 -12.7903C1923.42 -5.36487 1925.8 1.899 1926.23 10.0719ZM1875.03 -19.215C1869.09 -21.3805 1862.8 -22.718 1856.82 -23.7879C1828.79 -28.7082 1800.11 -25.0509 1772.22 -21.1696C1757.66 -19.1137 1743.08 -16.896 1728.41 -15.5808C1712.43 -14.1223 1696.66 -14.3569 1680.66 -15.3011C1653.83 -16.8727 1622.09 -17.3979 1602.48 4.41557C1582.12 27.0259 1583.26 63.8632 1586.31 92.1787C1589.34 120.737 1597.05 152.015 1613.54 175.99C1621.08 186.988 1631.4 196.367 1644.21 200.648C1656.52 204.768 1669.77 203.913 1682.05 200.258C1710.95 191.652 1731.23 169.035 1753.21 149.805C1767.21 137.491 1782.54 128.046 1799.24 119.846C1814.54 112.313 1830.22 105.215 1844.01 95.1229C1862.63 81.4949 1877.43 63.5848 1890.47 44.6852C1896.19 36.3746 1901.48 27.2175 1901.78 16.9033C1902.06 8.49998 1899.24 0.103297 1893.96 -6.48795C1889.1 -12.6 1882.35 -16.4958 1875.03 -19.215ZM1892.53 34.7504C1892.23 35.3792 1891.91 35.9643 1891.61 36.5931C1890.41 38.9835 1888.55 41.0378 1886.99 43.2789C1883.7 47.9913 1880.34 52.6166 1876.82 57.1486C1869.83 66.0942 1862.31 74.5918 1853.91 82.2491C1831.91 102.252 1804.22 111.642 1778.92 126.385C1754.13 140.841 1735.92 163.047 1713.17 180.061C1691.68 196.155 1660.54 208.048 1635.43 192.526C1611.1 177.472 1600.73 145.379 1594.6 119.025C1588.06 91.0518 1584.86 58.4102 1592.89 30.417C1597.16 15.4836 1606.02 2.81542 1620.12 -4.28238C1633.11 -10.8136 1647.8 -12.4525 1662.15 -12.2861C1677.37 -12.1759 1692.48 -10.3228 1707.73 -10.6172C1720.52 -10.8553 1733.28 -12.1142 1746.02 -13.7404C1775.97 -17.5037 1806.02 -23.62 1836.32 -22.2293C1843.54 -21.919 1850.68 -21.1666 1857.79 -19.9288C1869.27 -17.9072 1880.87 -15.1449 1889.23 -6.36291C1895.04 -0.300814 1898.23 8.0025 1898.08 16.3747C1897.95 22.9168 1895.33 28.9425 1892.53 34.7504Z" fill="white" stroke="white" stroke-width="2" mask="url(#path-1-inside-1_747_159)"/>
<mask id="path-2-inside-2_747_159" fill="white">
<path d="M126.286 -64.2303C108.846 -70.1315 90.2199 -73.212 72.1922 -76.926C52.8285 -80.9367 33.4056 -84.5961 13.8151 -87.3301C-24.0545 -92.6004 -62.8716 -94.3524 -100.659 -87.5489C-117.158 -84.5779 -133.67 -79.7315 -147.859 -70.5655C-163.206 -60.6473 -173.853 -45.7417 -180.259 -28.7634C-187.316 -10.0233 -189.262 9.9829 -190.416 29.7911C-191.027 40.3558 -191.475 50.9006 -192.442 61.4703C-193.311 71.174 -194.858 80.858 -195.985 90.542C-198.07 108.564 -197.974 126.398 -190.357 143.191C-182.998 159.544 -170.886 173.383 -159.091 186.713C-134.733 214.336 -105.047 241.236 -66.7928 245.274C-32.1651 248.937 -4.77785 228.749 16.8815 203.916C21.4893 198.641 25.8495 193.217 30.2147 187.729C58.8746 161.88 87.4947 135.705 112.154 105.894C135.459 77.7254 157.671 44.3612 165.988 8.24757C169.328 -6.28103 169.97 -22.3433 163.123 -36.069C155.795 -50.7052 141.331 -59.1601 126.286 -64.2303ZM146.468 -51.001C160.314 -40.8141 166.193 -24.9951 165.364 -8.17081C164.578 8.07454 158.795 23.6772 152.111 38.3695C144.3 55.5312 134.401 71.6589 123.274 86.9158C100.92 117.454 73.7256 144.03 45.966 169.527C41.4416 173.709 36.8924 177.792 32.3383 181.939C31.8038 181.736 31.1804 181.85 30.7157 182.429C29.8556 183.528 28.9608 184.656 28.066 185.784C27.2303 186.561 26.365 187.304 25.564 188.051C25.0794 188.467 24.9709 189.041 25.1295 189.506C6.9916 212.28 -14.2086 235.757 -43.7977 241.541C-81.3272 248.785 -116.284 226.526 -141.684 201.12C-154.281 188.538 -166.477 174.951 -176.823 160.439C-187.783 145.071 -194.435 128.352 -194.339 109.271C-194.252 91.1603 -190.302 73.2816 -188.963 55.2994C-187.547 35.8672 -187.412 16.272 -184.071 -2.94763C-180.931 -21.2122 -174.576 -39.6503 -162.424 -53.9226C-150.698 -67.71 -134.088 -75.946 -116.898 -80.7727C-82.413 -90.5151 -45.0863 -90.4305 -9.69196 -87.065C26.4743 -83.6402 62.0744 -76.1825 97.4965 -68.512C114.272 -64.9265 132.344 -61.3709 146.468 -51.001ZM19.8752 -60.3033C-14.835 -61.6104 -49.6429 -61.2103 -84.3259 -59.0536C-98.303 -58.186 -112.938 -56.7541 -125.124 -49.2461C-136.257 -42.4012 -143.854 -31.4349 -148.71 -19.5139C-159.256 6.36701 -159.907 36.9872 -156.821 64.4003C-153.639 93.1149 -144.887 121.319 -131 146.682C-116.831 172.585 -95.9978 198.482 -65.2135 203.758C-36.468 208.619 -12.3304 189.896 6.00741 170.017C17.5026 157.57 28.0075 144.11 41.1266 133.276C52.9354 123.507 66.3191 115.994 79.1778 107.729C91.7991 99.607 103.876 90.57 113.253 78.7375C117.767 73.0019 121.632 66.8606 125.066 60.4274C129.82 51.5396 134.291 42.5332 138.11 33.1854C144.314 18.0033 150.343 0.866593 142.846 -14.9473C142.375 -15.9863 141.806 -17.0007 141.3 -18.0101C137.238 -25.4073 131.627 -32.0175 125.043 -37.3114C123.033 -38.954 120.914 -40.4432 118.692 -41.8433C90.0313 -59.7032 52.4874 -59.0603 19.8752 -60.3033ZM143.485 -0.404282C143.54 0.99113 143.561 2.41623 143.512 3.90073C143.074 13.4757 139.211 22.5613 135.664 31.3153C133.753 36.0213 131.717 40.6532 129.524 45.2405C128.985 46.3638 123.061 58.7204 122.685 58.5621C122.621 58.5572 122.591 58.5226 122.497 58.483C115.89 70.8842 107.581 82.2811 96.4149 91.6793C74.5086 109.991 47.8127 121.108 27.6397 141.72C8.03031 161.728 -8.50265 187.214 -35.7036 197.742C-66.204 209.538 -95.9283 191.628 -114.217 167.577C-147.656 123.695 -160.873 63.6685 -153.153 9.48864C-151.213 -4.07983 -147.605 -17.8761 -140.335 -29.644C-132.516 -42.2433 -120.781 -50.2066 -106.365 -53.4346C-92.1468 -56.6131 -77.135 -56.6249 -62.658 -57.26C-46.1721 -57.935 -29.6812 -58.2536 -13.1602 -58.1171C2.7819 -58.025 18.6945 -57.547 34.6124 -56.7126C50.7875 -55.8585 67.1952 -55.0836 83.0998 -51.9533C97.4406 -49.1048 111.709 -43.609 123.279 -34.5352C128.957 -30.0873 133.953 -24.7537 137.688 -18.5787C141.249 -12.6758 143.139 -6.90135 143.485 -0.404282ZM102.782 -23.686C98.0607 -25.4075 93.0626 -26.4708 88.3071 -27.3213C66.0242 -31.2327 43.2215 -28.3253 21.0523 -25.2398C9.47544 -23.6055 -2.11122 -21.8425 -13.7726 -20.797C-26.4779 -19.6375 -39.0159 -19.824 -51.7374 -20.5746C-73.0586 -21.824 -98.2929 -22.2415 -113.882 -4.90081C-130.068 13.0734 -129.162 42.3573 -126.737 64.8668C-124.327 87.5693 -118.199 112.434 -105.094 131.493C-99.0959 140.236 -90.897 147.692 -80.707 151.095C-70.9278 154.37 -60.3943 153.691 -50.6292 150.785C-27.6561 143.943 -11.5336 125.964 5.93666 110.677C17.0675 100.888 29.2539 93.3798 42.5294 86.8613C54.697 80.8723 67.1617 75.2298 78.1255 67.2073C92.927 56.3736 104.688 42.136 115.053 27.1117C119.601 20.5052 123.811 13.2257 124.048 5.02634C124.266 -1.65388 122.025 -8.32886 117.831 -13.5686C113.963 -18.4274 108.602 -21.5243 102.782 -23.686ZM116.691 19.214C116.458 19.7138 116.196 20.179 115.964 20.6788C115.011 22.5791 113.527 24.2122 112.292 25.9937C109.677 29.7399 107.003 33.4168 104.205 37.0195C98.6481 44.1309 92.6659 50.886 85.9905 56.9732C68.5059 72.8742 46.4881 80.3389 26.3782 92.0589C6.67391 103.551 -7.80614 121.204 -25.8862 134.729C-42.9722 147.523 -67.7297 156.977 -87.688 144.638C-107.028 132.671 -115.274 107.158 -120.147 86.208C-125.343 63.971 -127.894 38.0224 -121.507 15.7692C-118.111 3.89778 -111.067 -6.17286 -99.8641 -11.8153C-89.5366 -17.0073 -77.8556 -18.3101 -66.4457 -18.1779C-54.3531 -18.0903 -42.3337 -16.6171 -30.2166 -16.8512C-20.0439 -17.0405 -9.90644 -18.0412 0.220936 -19.334C24.0329 -22.3256 47.9228 -27.1877 72.0048 -26.0822C77.7445 -25.8355 83.425 -25.2375 89.0762 -24.2534C98.2061 -22.6463 107.421 -20.4504 114.07 -13.4692C118.685 -8.65011 121.223 -2.04936 121.104 4.60611C120.999 9.80678 118.919 14.597 116.691 19.214Z"/>
</mask>
<path d="M126.286 -64.2303C108.846 -70.1315 90.2199 -73.212 72.1922 -76.926C52.8285 -80.9367 33.4056 -84.5961 13.8151 -87.3301C-24.0545 -92.6004 -62.8716 -94.3524 -100.659 -87.5489C-117.158 -84.5779 -133.67 -79.7315 -147.859 -70.5655C-163.206 -60.6473 -173.853 -45.7417 -180.259 -28.7634C-187.316 -10.0233 -189.262 9.9829 -190.416 29.7911C-191.027 40.3558 -191.475 50.9006 -192.442 61.4703C-193.311 71.174 -194.858 80.858 -195.985 90.542C-198.07 108.564 -197.974 126.398 -190.357 143.191C-182.998 159.544 -170.886 173.383 -159.091 186.713C-134.733 214.336 -105.047 241.236 -66.7928 245.274C-32.1651 248.937 -4.77785 228.749 16.8815 203.916C21.4893 198.641 25.8495 193.217 30.2147 187.729C58.8746 161.88 87.4947 135.705 112.154 105.894C135.459 77.7254 157.671 44.3612 165.988 8.24757C169.328 -6.28103 169.97 -22.3433 163.123 -36.069C155.795 -50.7052 141.331 -59.1601 126.286 -64.2303ZM146.468 -51.001C160.314 -40.8141 166.193 -24.9951 165.364 -8.17081C164.578 8.07454 158.795 23.6772 152.111 38.3695C144.3 55.5312 134.401 71.6589 123.274 86.9158C100.92 117.454 73.7256 144.03 45.966 169.527C41.4416 173.709 36.8924 177.792 32.3383 181.939C31.8038 181.736 31.1804 181.85 30.7157 182.429C29.8556 183.528 28.9608 184.656 28.066 185.784C27.2303 186.561 26.365 187.304 25.564 188.051C25.0794 188.467 24.9709 189.041 25.1295 189.506C6.9916 212.28 -14.2086 235.757 -43.7977 241.541C-81.3272 248.785 -116.284 226.526 -141.684 201.12C-154.281 188.538 -166.477 174.951 -176.823 160.439C-187.783 145.071 -194.435 128.352 -194.339 109.271C-194.252 91.1603 -190.302 73.2816 -188.963 55.2994C-187.547 35.8672 -187.412 16.272 -184.071 -2.94763C-180.931 -21.2122 -174.576 -39.6503 -162.424 -53.9226C-150.698 -67.71 -134.088 -75.946 -116.898 -80.7727C-82.413 -90.5151 -45.0863 -90.4305 -9.69196 -87.065C26.4743 -83.6402 62.0744 -76.1825 97.4965 -68.512C114.272 -64.9265 132.344 -61.3709 146.468 -51.001ZM19.8752 -60.3033C-14.835 -61.6104 -49.6429 -61.2103 -84.3259 -59.0536C-98.303 -58.186 -112.938 -56.7541 -125.124 -49.2461C-136.257 -42.4012 -143.854 -31.4349 -148.71 -19.5139C-159.256 6.36701 -159.907 36.9872 -156.821 64.4003C-153.639 93.1149 -144.887 121.319 -131 146.682C-116.831 172.585 -95.9978 198.482 -65.2135 203.758C-36.468 208.619 -12.3304 189.896 6.00741 170.017C17.5026 157.57 28.0075 144.11 41.1266 133.276C52.9354 123.507 66.3191 115.994 79.1778 107.729C91.7991 99.607 103.876 90.57 113.253 78.7375C117.767 73.0019 121.632 66.8606 125.066 60.4274C129.82 51.5396 134.291 42.5332 138.11 33.1854C144.314 18.0033 150.343 0.866593 142.846 -14.9473C142.375 -15.9863 141.806 -17.0007 141.3 -18.0101C137.238 -25.4073 131.627 -32.0175 125.043 -37.3114C123.033 -38.954 120.914 -40.4432 118.692 -41.8433C90.0313 -59.7032 52.4874 -59.0603 19.8752 -60.3033ZM143.485 -0.404282C143.54 0.99113 143.561 2.41623 143.512 3.90073C143.074 13.4757 139.211 22.5613 135.664 31.3153C133.753 36.0213 131.717 40.6532 129.524 45.2405C128.985 46.3638 123.061 58.7204 122.685 58.5621C122.621 58.5572 122.591 58.5226 122.497 58.483C115.89 70.8842 107.581 82.2811 96.4149 91.6793C74.5086 109.991 47.8127 121.108 27.6397 141.72C8.03031 161.728 -8.50265 187.214 -35.7036 197.742C-66.204 209.538 -95.9283 191.628 -114.217 167.577C-147.656 123.695 -160.873 63.6685 -153.153 9.48864C-151.213 -4.07983 -147.605 -17.8761 -140.335 -29.644C-132.516 -42.2433 -120.781 -50.2066 -106.365 -53.4346C-92.1468 -56.6131 -77.135 -56.6249 -62.658 -57.26C-46.1721 -57.935 -29.6812 -58.2536 -13.1602 -58.1171C2.7819 -58.025 18.6945 -57.547 34.6124 -56.7126C50.7875 -55.8585 67.1952 -55.0836 83.0998 -51.9533C97.4406 -49.1048 111.709 -43.609 123.279 -34.5352C128.957 -30.0873 133.953 -24.7537 137.688 -18.5787C141.249 -12.6758 143.139 -6.90135 143.485 -0.404282ZM102.782 -23.686C98.0607 -25.4075 93.0626 -26.4708 88.3071 -27.3213C66.0242 -31.2327 43.2215 -28.3253 21.0523 -25.2398C9.47544 -23.6055 -2.11122 -21.8425 -13.7726 -20.797C-26.4779 -19.6375 -39.0159 -19.824 -51.7374 -20.5746C-73.0586 -21.824 -98.2929 -22.2415 -113.882 -4.90081C-130.068 13.0734 -129.162 42.3573 -126.737 64.8668C-124.327 87.5693 -118.199 112.434 -105.094 131.493C-99.0959 140.236 -90.897 147.692 -80.707 151.095C-70.9278 154.37 -60.3943 153.691 -50.6292 150.785C-27.6561 143.943 -11.5336 125.964 5.93666 110.677C17.0675 100.888 29.2539 93.3798 42.5294 86.8613C54.697 80.8723 67.1617 75.2298 78.1255 67.2073C92.927 56.3736 104.688 42.136 115.053 27.1117C119.601 20.5052 123.811 13.2257 124.048 5.02634C124.266 -1.65388 122.025 -8.32886 117.831 -13.5686C113.963 -18.4274 108.602 -21.5243 102.782 -23.686ZM116.691 19.214C116.458 19.7138 116.196 20.179 115.964 20.6788C115.011 22.5791 113.527 24.2122 112.292 25.9937C109.677 29.7399 107.003 33.4168 104.205 37.0195C98.6481 44.1309 92.6659 50.886 85.9905 56.9732C68.5059 72.8742 46.4881 80.3389 26.3782 92.0589C6.67391 103.551 -7.80614 121.204 -25.8862 134.729C-42.9722 147.523 -67.7297 156.977 -87.688 144.638C-107.028 132.671 -115.274 107.158 -120.147 86.208C-125.343 63.971 -127.894 38.0224 -121.507 15.7692C-118.111 3.89778 -111.067 -6.17286 -99.8641 -11.8153C-89.5366 -17.0073 -77.8556 -18.3101 -66.4457 -18.1779C-54.3531 -18.0903 -42.3337 -16.6171 -30.2166 -16.8512C-20.0439 -17.0405 -9.90644 -18.0412 0.220936 -19.334C24.0329 -22.3256 47.9228 -27.1877 72.0048 -26.0822C77.7445 -25.8355 83.425 -25.2375 89.0762 -24.2534C98.2061 -22.6463 107.421 -20.4504 114.07 -13.4692C118.685 -8.65011 121.223 -2.04936 121.104 4.60611C120.999 9.80678 118.919 14.597 116.691 19.214Z" fill="white" stroke="white" stroke-width="2" mask="url(#path-2-inside-2_747_159)"/>
<path d="M1780.61 -182.882C1857.08 -186.34 1922.05 -137.23 1955.73 -71.3283C1972.84 -37.9218 1984.8 1.48792 1981.88 39.3517C1978.84 78.9256 1955.07 109.335 1927.78 136.276C1899.18 164.405 1867.89 196.901 1827.3 206.236C1806.64 210.999 1785.14 209.471 1764.35 206.139C1739.39 202.174 1707.38 195.261 1685.34 181.471C1653.21 161.271 1634.67 125.656 1628.01 89.2414C1620.25 47.1627 1624.09 1.41502 1632.73 -40.294C1640.71 -78.7389 1656.69 -116.946 1685.68 -144.409C1711.33 -168.593 1745.59 -181.348 1780.61 -182.882Z" fill="white" fill-opacity="0.2"/>
<path d="M27.7194 -153.793C88.5106 -156.542 140.157 -117.503 166.937 -65.1136C180.535 -38.5571 190.047 -7.22814 187.718 22.8718C185.306 54.3312 166.412 78.5056 144.712 99.9218C121.98 122.283 97.1038 148.116 64.8355 155.537C48.4145 159.324 31.3238 158.108 14.799 155.46C-5.04595 152.308 -30.4926 146.812 -48.0155 135.85C-73.5539 119.792 -88.2933 91.4797 -93.591 62.5318C-99.7599 29.0812 -96.7071 -7.28609 -89.8323 -40.4428C-83.4916 -71.0047 -70.7854 -101.378 -47.7433 -123.209C-27.356 -142.435 -0.119365 -152.575 27.7194 -153.793Z" fill="white" fill-opacity="0.2"/>
<path d="M1220.84 64.5L1181 -5L1261.34 -5L1220.84 64.5Z" fill="white" fill-opacity="0.39"/>
<path d="M1365.34 36L1404.67 105L1325 105L1365.34 36Z" fill="white" fill-opacity="0.39"/>
<path d="M1261.34 -5L1301.61 64L1221.07 64L1261.34 -5Z" fill="white" fill-opacity="0.53"/>
<path d="M1325.34 105L1285.07 36L1365.61 36L1325.34 105Z" fill="white" fill-opacity="0.7"/>
<path d="M1829.84 73.5L1869.67 4L1789.34 4L1829.84 73.5Z" fill="white" fill-opacity="0.39"/>
<path d="M1685.34 45L1646 114L1725.67 114L1685.34 45Z" fill="white" fill-opacity="0.39"/>
<path d="M1789.34 4L1749.07 73L1829.61 73L1789.34 4Z" fill="white" fill-opacity="0.53"/>
<path d="M1725.34 114L1765.61 45L1685.07 45L1725.34 114Z" fill="white" fill-opacity="0.7"/>
</g>
<defs>
<clipPath id="clip0_747_159">
<rect width="1819" height="100" fill="white"/>
</clipPath>
</defs>
</svg>
