<svg width="241" height="105" viewBox="0 0 241 105" fill="none" xmlns="http://www.w3.org/2000/svg">
<g clip-path="url(#clip0_856_2)">
<path d="M0 73.4003C0.323323 72.74 0.509168 72.0512 0.921595 71.5599C3.46744 68.5132 6.05149 65.4943 8.67372 62.5032C9.79134 61.2268 10.7104 61.2372 11.8458 62.5421C14.771 65.9215 17.6427 69.3711 20.5272 72.7972C23.886 76.7831 27.2397 80.7734 30.5884 84.768C32.5928 87.1561 34.5904 89.5511 36.5813 91.953C37.2738 92.7875 37.3654 93.6765 36.6449 94.5214C33.8114 97.8435 30.9728 101.163 28.0934 104.446C27.3882 105.252 26.4106 105.164 25.652 104.283C22.2202 100.297 18.8028 96.2977 15.3998 92.2858C12.3448 88.7036 9.30423 85.1172 6.27807 81.5264C4.49597 79.4104 2.66042 77.3126 0.898691 75.168C0.514268 74.7001 0.328414 74.0528 0 73.4003Z" fill="white"/>
<path d="M241.003 101.012H234.317C234.261 100.204 234.208 99.4526 234.141 98.4726C229.814 101.275 225.346 102.213 220.531 100.383C217.365 99.1975 214.664 96.9898 212.838 94.095C209.073 88.2695 209.46 80.5152 213.744 75.233C218.655 69.1787 225.274 68.0505 234.136 71.8796V60.9772H240.995L241.003 101.012ZM225.598 76.6679C223.298 76.6937 221.102 77.6514 219.494 79.3301C217.886 81.0088 216.997 83.2711 217.022 85.6193C217.047 87.9675 217.985 90.2093 219.629 91.8514C221.273 93.4936 223.489 94.4016 225.789 94.3758C230.432 94.342 234.259 90.3153 234.248 85.4724C234.254 84.312 234.035 83.162 233.602 82.0891C233.169 81.0162 232.531 80.0418 231.727 79.2226C230.922 78.4034 229.965 77.7557 228.913 77.3171C227.861 76.8786 226.734 76.6579 225.598 76.6679V76.6679Z" fill="white"/>
<path d="M28.0399 57.0104C31.515 57.0104 34.9901 57.0312 38.4779 57.0104C39.0681 56.9817 39.6566 57.0966 40.1948 57.3456C40.7331 57.5946 41.2056 57.9707 41.5736 58.4428C45.0869 62.6488 48.6664 66.795 52.2076 70.9776C53.893 72.9688 53.8624 74.162 52.228 76.0597C48.8505 79.9815 45.484 83.9145 42.1286 87.8588C40.8735 89.3276 39.705 89.325 38.4473 87.8147C31.5752 79.569 24.7074 71.3181 17.8438 63.0621C17.0263 62.1333 16.2767 61.1446 15.6009 60.1038C15.2445 59.5138 14.9288 58.6013 15.1325 58.0398C15.3081 57.5641 16.245 57.1534 16.8687 57.117C19.0658 56.9922 21.273 57.0338 23.4879 57.0208C24.9874 57.0026 26.5149 57.0104 28.0399 57.0104Z" fill="white"/>
<path d="M173.329 101.007H166.659C166.587 100.188 166.521 99.4474 166.437 98.4882C162.384 101.124 158.191 102.115 153.634 100.654C150.443 99.6685 147.661 97.633 145.722 94.8645C141.422 88.7765 141.59 80.8271 146.042 75.2564C150.098 70.1847 158.061 67.0289 166.45 71.9056V60.9747H173.324L173.329 101.007ZM157.942 76.6679C156.803 76.678 155.677 76.917 154.629 77.3712C153.581 77.8255 152.63 78.4861 151.832 79.3154C151.034 80.1447 150.404 81.1264 149.977 82.2045C149.55 83.2825 149.336 84.4358 149.346 85.5985C149.356 86.7613 149.59 87.9106 150.034 88.981C150.479 90.0513 151.126 91.0217 151.939 91.8368C152.751 92.6518 153.712 93.2955 154.768 93.7312C155.824 94.1668 156.953 94.3859 158.092 94.3758C162.83 94.3498 166.626 90.3596 166.603 85.4309C166.609 84.2716 166.388 83.1228 165.954 82.0517C165.52 80.9805 164.881 80.0085 164.074 79.1925C163.268 78.3766 162.31 77.733 161.257 77.2995C160.204 76.866 159.077 76.6513 157.942 76.6679V76.6679Z" fill="white"/>
<path d="M183.655 88.1915C184.861 91.4591 186.865 93.4555 189.821 94.2458C193.848 95.3272 197.138 93.9338 199.778 90.5415L205.216 94.238C202.069 98.7403 197.899 101.137 192.609 101.327C186.244 101.556 180.457 97.6875 177.843 91.5943C175.381 85.8754 176.687 78.8879 181.076 74.2945C183.344 71.9245 186.279 70.3352 189.473 69.7477C192.667 69.1602 195.961 69.6037 198.897 71.0165C204.79 73.8032 208.377 80.211 207.833 86.845C207.746 87.8848 207.28 88.0018 206.445 88.007C199.75 88.0511 193.054 88.1265 186.358 88.1915C185.539 88.1993 184.744 88.1915 183.655 88.1915ZM200.648 82.353C199.375 78.2224 195.429 75.7685 191.035 76.2C187.98 76.4989 184.253 79.4494 183.96 82.353H200.648Z" fill="white"/>
<path d="M67.4216 60.9435H74.158V72.4931C76.0801 71.5937 77.8494 70.4291 79.7843 69.93C83.7889 68.8902 87.7375 69.1501 91.0369 72.1032C93.6617 74.4635 94.6367 77.6869 95.0772 81.0923C95.2511 82.5508 95.3361 84.0189 95.3317 85.4881C95.3623 90.1672 95.3317 94.8255 95.3317 99.4943V100.828H88.4045V99.3643C88.4045 94.4252 88.4707 89.5069 88.3663 84.5809C88.3232 82.9028 88.0455 81.2396 87.5415 79.6418C87.2972 78.8453 86.8231 78.1427 86.1812 77.626C85.5394 77.1093 84.7597 76.8026 83.9442 76.7459C82.4523 76.6003 80.8892 76.5536 79.4304 76.8707C76.2354 77.5622 74.2852 80.3384 74.2369 84.1051C74.1707 89.1612 74.2114 94.2198 74.2063 99.2785V100.797H67.4089L67.4216 60.9435Z" fill="white"/>
<path d="M128.955 85.4387C128.955 94.2042 121.949 101.405 113.494 101.35C104.998 101.293 98.1143 94.1028 98.1449 85.3191C98.178 76.6211 105.113 69.4907 113.545 69.4855C122.045 69.4829 128.962 76.6523 128.955 85.4387ZM113.461 76.4496C108.741 76.4314 104.978 80.2734 104.914 85.1761C104.851 90.0788 108.713 94.121 113.415 94.1158C118.066 94.1158 121.887 90.136 121.903 85.2775C121.918 80.419 118.145 76.4678 113.461 76.4496V76.4496Z" fill="white"/>
<path d="M139.288 100.851H132.649V61.0059H139.288V100.851Z" fill="white"/>
</g>
<path fill-rule="evenodd" clip-rule="evenodd" d="M66.9081 5.39123C67.5803 3.81395 68.6953 2.46537 70.1182 1.50882C71.5411 0.552264 73.2109 0.0287569 74.9252 0.00169311C100.753 0.00169311 126.581 0.00169311 152.41 0.00169311C154.673 -0.0425065 156.869 0.780119 158.546 2.30123C159.485 3.15454 160.232 4.1985 160.736 5.36336C161.239 6.52822 161.489 7.78717 161.467 9.05612C161.467 18.9572 161.486 28.8553 161.467 38.7564C161.448 43.2305 157.54 47.2234 153.066 47.3453C143.649 47.3859 134.226 47.3453 124.806 47.364C126.071 50.4884 127.352 53.5971 128.618 56.7184C122.994 53.6284 117.451 50.429 111.808 47.4046C99.4171 47.2953 87.0165 47.4046 74.6284 47.3422C70.1637 47.2172 66.2707 43.2274 66.2457 38.7626C66.2082 29.0771 66.2457 19.3915 66.227 9.68099C66.1413 8.21697 66.3803 6.75211 66.9268 5.39123H66.9081Z" fill="white"/>
<path fill-rule="evenodd" clip-rule="evenodd" d="M104.794 6.12223C106.225 4.60066 108.94 5.09431 109.996 6.81584C110.273 7.27256 110.432 7.79033 110.46 8.32331C110.489 8.85629 110.385 9.38804 110.159 9.87147C108.169 13.7863 107.347 18.1479 106.572 22.4346C105.666 28.0241 104.913 33.6823 105.207 39.3593C105.288 40.8059 104.582 42.5618 103.02 42.8992C101.551 43.2116 100.208 42.2743 99.2922 41.2277C95.0743 36.6911 92.6873 30.8141 90.9658 24.9497C89.2255 28.3865 87.479 31.8233 85.7918 35.2789C84.6108 37.619 83.3642 40.006 81.4771 41.865C80.6804 42.6555 79.3338 43.371 78.3058 42.5586C76.7437 41.2058 76.3781 39.05 75.722 37.1972C73.2225 28.6083 71.8196 19.757 70.3731 10.9525C70.0419 9.48405 70.6574 7.72503 72.1227 7.13765C73.3069 6.69399 74.8222 6.6315 75.8313 7.5032C76.5343 8.12807 76.728 9.10288 76.8593 10.0027C77.8747 16.8232 79.0838 23.6218 80.7304 30.3111C83.5506 24.9622 86.3625 19.6081 89.1662 14.2487C89.5848 13.4645 90.0847 12.6865 90.8533 12.1898C91.8812 11.5305 93.4059 11.5649 94.2651 12.5022C94.9869 13.2583 95.2274 14.3112 95.4274 15.3141C96.2352 19.749 97.457 24.0984 99.0767 28.3053C99.789 21.9815 100.661 15.5797 102.97 9.60903C103.491 8.40614 103.951 7.13452 104.794 6.11285V6.12223ZM120.654 9.50905C123.69 9.13725 126.968 10.1339 129.036 12.4553C130.723 14.3643 131.67 16.8294 131.989 19.3477C132.524 23.668 131.714 28.0483 129.67 31.892C128.505 34.0604 126.98 36.1381 124.831 37.4128C121.681 39.3249 117.457 39.0906 114.414 37.0722C111.983 35.407 110.618 32.57 110.062 29.7425C108.943 23.3344 110.856 16.2014 115.701 11.7461C117.095 10.5289 118.819 9.75162 120.654 9.51217V9.50905ZM121.278 16.0921C119.819 16.5764 118.898 17.9136 118.113 19.1571C116.148 22.3221 115.58 26.4962 117.161 29.9393C117.576 30.8454 118.245 31.8139 119.298 31.9889C120.416 32.1732 121.457 31.5327 122.272 30.836C124.068 29.2957 124.962 26.9805 125.396 24.7091C125.884 22.1221 125.634 19.2571 124.115 17.0419C123.806 16.601 123.364 16.2716 122.852 16.1027C122.341 15.9338 121.789 15.9345 121.278 16.1046V16.0921ZM145.024 9.53092C147.992 9.16224 151.213 10.0777 153.291 12.2929C155.165 14.2987 156.156 16.9794 156.44 19.6789C156.895 23.8534 156.098 28.069 154.15 31.7889C152.969 34.0166 151.41 36.1631 149.198 37.4565C146.173 39.2687 142.18 39.1031 139.2 37.3159C137.175 36.0974 135.829 34.0166 135.054 31.8296C132.929 25.1403 134.723 17.27 139.618 12.221C141.078 10.756 142.974 9.80342 145.021 9.50592L145.024 9.53092ZM145.667 16.1171C144.074 16.6857 143.118 18.2073 142.29 19.5883C140.496 22.7501 140.056 26.8212 141.665 30.1424C142.102 31.061 142.877 31.9858 143.974 32.0358C145.167 32.0795 146.195 31.3234 147.023 30.5423C148.826 28.7645 149.651 26.2244 149.938 23.7593C150.248 21.4316 149.86 18.9321 148.517 17.0075C148.204 16.5673 147.757 16.2401 147.243 16.0751C146.729 15.9101 146.175 15.916 145.664 16.0921L145.667 16.1171Z" fill="#D33564"/>
<defs>
<clipPath id="clip0_856_2">
<rect width="241" height="48" fill="white" transform="translate(0 57)"/>
</clipPath>
</defs>
</svg>
